<svg enable-background="new 0 0 64 64" height="64px" id="Icons" version="1.1" viewBox="0 0 64 64" width="64px" xml:space="preserve" xmlns="http://www.w3.org/2000/svg" xmlns:xlink="http://www.w3.org/1999/xlink"><g id="usability_audit"><g><path d="M17.07,21h1.055l0.251,1.758c0.068,0.546,0.569,0.931,1.114,1.009l1.52,0.154    c0.216,0.031,0.484,0.015,0.764,0.015c0.428,0,0.881-0.051,1.207-0.116l0.539-0.115c0.539-0.108,1.09-0.387,1.223-0.92L25.25,21    c0,0,0.094-0.5,0.75-0.5s0.75,0.5,0.75,0.5l0.508,1.78c0.133,0.533,0.684,0.933,1.223,1.041l0.539,0.045    c0.326,0.065,0.779,0.069,1.207,0.069c0.279,0,0.549-0.03,0.764-0.062l1.52-0.225c0.545-0.078,1.046-0.342,1.114-0.888L33.875,21    h1.115c0.007,0.475,0.01,0.967,0.01,1.5c0,0,1-3.188,1-8c0-2.916-0.5-7-4-7c-1.458-1.708-3.946-2-7-2c-7.5,0-9,4.5-9,9    c0,4.971,1,8,1,8C17,21.943,17.029,21.459,17.07,21z M24.772,20.349l-0.515,2.061c-0.087,0.347-0.486,0.727-0.836,0.797    l-0.54,0.107c-0.282,0.057-0.696,0.091-1.108,0.091c-0.264,0-0.51-0.015-0.692-0.041l-1.521-0.217    c-0.32-0.046-0.648-0.38-0.688-0.701L18.62,20.43c-0.034-0.273,0.167-0.537,0.44-0.576l1.521-0.217    c0.262-0.038,0.631-0.06,1.013-0.06c0.319,0,0.617,0.016,0.836,0.043l2.016,0.252c0.121,0.015,0.22,0.071,0.279,0.159    C24.785,20.118,24.802,20.231,24.772,20.349z M33.128,22.445c-0.04,0.321-0.369,0.655-0.688,0.701l-1.521,0.217    c-0.183,0.026-0.429,0.041-0.692,0.041c-0.412,0-0.826-0.034-1.109-0.091l-0.538-0.107c-0.352-0.07-0.75-0.45-0.836-0.797    l-0.516-2.061c-0.029-0.117-0.013-0.23,0.048-0.317c0.06-0.088,0.159-0.145,0.279-0.159l2.016-0.252    c0.22-0.027,0.517-0.043,0.836-0.043c0.382,0,0.751,0.021,1.014,0.06l1.519,0.217c0.273,0.039,0.476,0.303,0.441,0.576    L33.128,22.445z M33.798,20c-0.131-0.328-0.417-0.589-0.788-0.642l-1.52-0.217c-0.296-0.042-0.694-0.064-1.084-0.064    c-0.328,0-0.649,0.016-0.898,0.047l-2.016,0.252c-0.375,0.047-0.639,0.301-0.731,0.624h-1.521    c-0.093-0.323-0.356-0.577-0.731-0.624l-2.016-0.252c-0.25-0.031-0.57-0.047-0.898-0.047c-0.39,0-0.787,0.022-1.084,0.064    l-1.52,0.217c-0.371,0.053-0.657,0.313-0.789,0.642h-1.012c0.222-1.455,0.588-2.648,0.811-4.5    c0.115-0.951,0.209-1.269,0.486-1.269c0.555,0,1.848,1.269,5.514,1.269c4.36,0,6.676-2.635,8.072-2.635    c0.365,0,0.668,0.181,0.928,0.635c1.475,2.58,1.859,4.35,1.961,6.5H33.798z M25,6.5c2.9,0,5.071,0.28,6.239,1.649l0.3,0.351H32    c0.742,0,3,0,3,6c0,0.264-0.003,0.523-0.009,0.777c-0.286-0.703-0.652-1.45-1.123-2.273c-0.538-0.941-1.273-1.139-1.796-1.139    c-0.762,0-1.489,0.4-2.41,0.908C28.266,13.543,26.527,14.5,24,14.5c-2.418,0-3.668-0.584-4.414-0.932    c-0.404-0.188-0.723-0.337-1.1-0.337l0,0c-1.207,0-1.373,1.267-1.477,2.123C17.004,15.076,17,14.792,17,14.5    C17,8.967,19.467,6.5,25,6.5z" fill="#37474F"></path><path d="M34.53,26.873c0.237-0.796,0.397-1.597,0.442-2.379C34.982,24.495,34.99,24.5,35,24.5c0.55,0,1-0.45,1-1    v-1c0,0.55-0.45,1.5-1,1.5c-0.001,0-0.329,0-0.885,0c-0.077,0.134-0.132,0.279-0.141,0.437c-0.059,1.009-0.306,2.028-0.681,3.009    C33.692,27.23,34.106,27.043,34.53,26.873z" fill="#37474F"></path><path d="M46.493,40.959c-0.272-1.634-1.811-3.223-3.435-3.547L38.5,36.5V36L32,34v-1.645    c-0.384,0.476-0.718,0.992-1,1.54v2.823c-0.154,0.226-0.474,0.623-0.987,1.024C30.011,37.829,30,37.913,30,38    c0,0.313,0.017,0.624,0.048,0.93c0.237-0.146,0.456-0.298,0.646-0.45l-0.453,1.554c0.134,0.575,0.321,1.128,0.559,1.655    l1.877-6.435l4.824,1.484v1.585l-1.871,0.748l-1.408,0.563l1.072,1.072l1.362,1.362l-2.729,3.358    c0.277,0.189,0.565,0.363,0.864,0.521L38,42l-2-2l2.5-1v-1.48l4.363,0.873c1.205,0.241,2.441,1.517,2.644,2.73l0.253,1.521    c0.05,0.297,0.084,0.713,0.104,1.164c0.333-0.393,0.629-0.816,0.892-1.263c-0.004-0.021-0.006-0.047-0.009-0.066    C46.606,41.64,46.493,40.959,46.493,40.959z" fill="#37474F"></path><path d="M39,50c-0.147,0-0.291-0.017-0.438-0.022L26,57.821l-0.567-0.354l7.446-9.164    c-0.289-0.172-0.57-0.354-0.843-0.549l-4.689,5.772l2.329-7.987c-0.266-0.328-0.511-0.673-0.741-1.028l-2.947,10.105    l-4.688-16.144C22.24,39.231,23.748,40,26.001,40c0.417,0,0.8-0.033,1.167-0.081c-0.053-0.326-0.096-0.655-0.121-0.989    C26.721,38.973,26.375,39,26.001,39c-3.182,0-4.613-1.712-5.001-2.28V32.65c1.488,1.42,3.24,2.35,5,2.35    c0.485,0,0.97-0.077,1.449-0.209c0.113-0.408,0.245-0.808,0.399-1.197C27.232,33.85,26.609,34,26,34    c-3.607,0-7.707-4.916-7.975-9.563c-0.009-0.157-0.063-0.303-0.141-0.437c-0.555,0-0.883,0-0.885,0c-0.55,0-1-0.95-1-1.5v1    c0,0.55,0.45,1,1,1c0.01,0,0.018-0.005,0.027-0.006c0.141,2.44,1.302,5.074,2.973,7.094V34l-6.5,2v0.501l-4.559,0.911    c-1.625,0.324-3.162,1.913-3.435,3.547l-0.253,1.521c-0.141,0.84-0.18,2.413-0.088,3.514L26,59l14.609-9.121    C40.081,49.95,39.547,50,39,50z M14.5,36.738l4.823-1.483l5.251,18.081l-9.227-11.269l1.359-1.36l1.072-1.072l-1.408-0.563    L14.5,38.323V36.738z M6.133,45.417c-0.042-0.959,0-2.132,0.107-2.773l0.253-1.521c0.206-1.235,1.417-2.485,2.645-2.73L13.5,37.52    V39l2.5,1l-2,2l11.552,14.108l-0.354,1.212L6.133,45.417z" fill="#37474F"></path><g><path d="M58.293,54.293l-8.586-8.586c-0.194-0.194-0.451-0.291-0.707-0.291c-0.159,0-0.313,0.051-0.458,0.126     l-0.836-0.836C49.139,42.849,50,40.527,50,38c0-6.075-4.925-11-11-11s-11,4.925-11,11s4.925,11,11,11     c2.527,0,4.849-0.861,6.706-2.294l0.836,0.836c-0.196,0.377-0.15,0.85,0.165,1.165l8.586,8.586     c0.194,0.194,0.451,0.291,0.707,0.291s0.513-0.097,0.707-0.291l1.586-1.586C58.682,55.318,58.682,54.682,58.293,54.293z M29,38     c0-5.522,4.478-10,10-10s10,4.478,10,10s-4.478,10-10,10S29,43.522,29,38z M47.058,45.472l0.735,0.735l-0.586,0.586l-0.735-0.735     C46.674,45.869,46.869,45.674,47.058,45.472z M56,56.586L47.414,48l1.583-1.584c0,0,0.001,0,0.003,0v-0.002L57.586,55L56,56.586z     " fill="#37474F"></path></g></g></g></svg>